{
  "accessors": [
    {
      "bufferView": 2,
      "componentType": 5126,
      "count": 2356,
      "max": [
        1.1832729578018188,
        0.4303952157497406,
        1.0476795434951782
      ],
      "min": [
        -1.0980664491653442,
        -0.00865179393440485,
        -0.9994535446166992
      ],
      "type": "VEC3"
    },
    {
      "bufferView": 2,
      "byteOffset": 28272,
      "componentType": 5126,
      "count": 2356,
      "max": [
        0.9990041851997375,
        0.9997073411941528,
        1.0
      ],
      "min": [
        -0.9990054965019226,
        -0.9996373653411865,
        -1.0
      ],
      "type": "VEC3"
    },
    {
      "bufferView": 3,
      "componentType": 5126,
      "count": 2356,
      "max": [
        0.9990176558494568,
        0.9998452067375183,
        1.0,
        -1.0
      ],
      "min": [
        -0.9990040063858032,
        -0.9999379515647888,
        -1.0,
        -1.0
      ],
      "type": "VEC4"
    },
    {
      "bufferView": 1,
      "componentType": 5126,
      "count": 2356,
      "max": [
        0.9955785274505615,
        0.9955554008483887
      ],
      "min": [
        0.0033636675216257572,
        0.020754516124725342
      ],
      "type": "VEC2"
    },
    {
      "bufferView": 1,
      "byteOffset": 18848,
      "componentType": 5126,
      "count": 2356,
      "max": [
        0.9955785274505615,
        0.9955554008483887
      ],
      "min": [
        0.0033636675216257572,
        0.020754516124725342
      ],
      "type": "VEC2"
    },
    {
      "bufferView": 1,
      "byteOffset": 37696,
      "componentType": 5126,
      "count": 2356,
      "max": [
        0.9955785274505615,
        0.9955554008483887
      ],
      "min": [
        0.0033636675216257572,
        0.020754516124725342
      ],
      "type": "VEC2"
    },
    {
      "bufferView": 1,
      "byteOffset": 56544,
      "componentType": 5126,
      "count": 2356,
      "max": [
        0.9955785274505615,
        0.9955554008483887
      ],
      "min": [
        0.0033636675216257572,
        0.020754516124725342
      ],
      "type": "VEC2"
    },
    {
      "bufferView": 0,
      "componentType": 5125,
      "count": 9624,
      "type": "SCALAR"
    }
  ],
  "asset": {
    "extras": {
      "author": "TheGiwi (https://sketchfab.com/TheGiwi)",
      "license": "CC-BY-4.0 (http://creativecommons.org/licenses/by/4.0/)",
      "source": "https://sketchfab.com/3d-models/sphygmomanometer-low-poly-58f303b71fd047b0960785141485f8f0",
      "title": "Sphygmomanometer Low Poly"
    },
    "generator": "Sketchfab-12.66.0",
    "version": "2.0"
  },
  "bufferViews": [
    {
      "buffer": 0,
      "byteLength": 38496,
      "name": "floatBufferViews",
      "target": 34963
    },
    {
      "buffer": 0,
      "byteLength": 75392,
      "byteOffset": 38496,
      "byteStride": 8,
      "name": "floatBufferViews",
      "target": 34962
    },
    {
      "buffer": 0,
      "byteLength": 56544,
      "byteOffset": 113888,
      "byteStride": 12,
      "name": "floatBufferViews",
      "target": 34962
    },
    {
      "buffer": 0,
      "byteLength": 37696,
      "byteOffset": 170432,
      "byteStride": 16,
      "name": "floatBufferViews",
      "target": 34962
    }
  ],
  "buffers": [
    {
      "byteLength": 208128,
      "uri": "scene.bin"
    }
  ],
  "images": [
    {
      "uri": "textures/Sphygmomanometer_baseColor.png"
    },
    {
      "uri": "textures/Sphygmomanometer_metallicRoughness.png"
    },
    {
      "uri": "textures/Sphygmomanometer_normal.png"
    }
  ],
  "materials": [
    {
      "doubleSided": true,
      "name": "Sphygmomanometer",
      "normalTexture": {
        "index": 2
      },
      "pbrMetallicRoughness": {
        "baseColorTexture": {
          "index": 0
        },
        "metallicRoughnessTexture": {
          "index": 1
        }
      }
    }
  ],
  "meshes": [
    {
      "name": "Object_0",
      "primitives": [
        {
          "attributes": {
            "NORMAL": 1,
            "POSITION": 0,
            "TANGENT": 2,
            "TEXCOORD_0": 3,
            "TEXCOORD_1": 4,
            "TEXCOORD_2": 5,
            "TEXCOORD_3": 6
          },
          "indices": 7,
          "material": 0,
          "mode": 4
        }
      ]
    }
  ],
  "nodes": [
    {
      "children": [
        1
      ],
      "matrix": [
        1.0,
        0.0,
        0.0,
        0.0,
        0.0,
        2.220446049250313e-16,
        -1.0,
        0.0,
        0.0,
        1.0,
        2.220446049250313e-16,
        0.0,
        0.0,
        0.0,
        0.0,
        1.0
      ],
      "name": "Sketchfab_model"
    },
    {
      "children": [
        2
      ],
      "name": "root"
    },
    {
      "children": [
        3
      ],
      "matrix": [
        1.0,
        0.0,
        0.0,
        0.0,
        0.0,
        2.220446049250313e-16,
        1.0,
        0.0,
        0.0,
        -1.0,
        2.220446049250313e-16,
        0.0,
        0.0,
        0.0,
        0.0,
        1.0
      ],
      "name": "GLTF_SceneRootNode"
    },
    {
      "children": [
        4
      ],
      "name": "sphygmomanometer_0"
    },
    {
      "mesh": 0,
      "name": "Object_4"
    }
  ],
  "samplers": [
    {
      "magFilter": 9729,
      "minFilter": 9987,
      "wrapS": 10497,
      "wrapT": 10497
    }
  ],
  "scene": 0,
  "scenes": [
    {
      "name": "Sketchfab_Scene",
      "nodes": [
        0
      ]
    }
  ],
  "textures": [
    {
      "sampler": 0,
      "source": 0
    },
    {
      "sampler": 0,
      "source": 1
    },
    {
      "sampler": 0,
      "source": 2
    }
  ]
}
